<mxfile>
    <diagram id="R-BRPoTpZyhLY2aqib3g" name="Page-1">
        <mxGraphModel dx="642" dy="478" grid="1" gridSize="10" guides="1" tooltips="1" connect="1" arrows="1" fold="1" page="1" pageScale="1" pageWidth="827" pageHeight="1169" math="0" shadow="0">
            <root>
                <mxCell id="0"/>
                <mxCell id="1" parent="0"/>
                <mxCell id="eWRBQ8og8PCyrHXCpCZj-6" value="Usersテーブル" style="swimlane;" parent="1" vertex="1">
                    <mxGeometry x="280" y="40" width="110" height="140" as="geometry"/>
                </mxCell>
                <mxCell id="eWRBQ8og8PCyrHXCpCZj-7" value="id&lt;br&gt;name&lt;br&gt;email&lt;br&gt;password&lt;br&gt;created_at&lt;br&gt;updated_at" style="whiteSpace=wrap;html=1;" parent="eWRBQ8og8PCyrHXCpCZj-6" vertex="1">
                    <mxGeometry y="20" width="110" height="120" as="geometry"/>
                </mxCell>
                <mxCell id="eWRBQ8og8PCyrHXCpCZj-8" value="Favoritesテーブル" style="swimlane;" parent="1" vertex="1">
                    <mxGeometry x="480" y="40" width="110" height="140" as="geometry"/>
                </mxCell>
                <mxCell id="eWRBQ8og8PCyrHXCpCZj-9" value="id&lt;br&gt;user_id&lt;br&gt;restaurant_id&lt;br&gt;created_at&lt;br&gt;updated_at" style="whiteSpace=wrap;html=1;" parent="eWRBQ8og8PCyrHXCpCZj-8" vertex="1">
                    <mxGeometry y="20" width="110" height="120" as="geometry"/>
                </mxCell>
                <mxCell id="eWRBQ8og8PCyrHXCpCZj-10" value="Restaurantsテーブル" style="swimlane;" parent="1" vertex="1">
                    <mxGeometry x="60" y="40" width="130" height="160" as="geometry"/>
                </mxCell>
                <mxCell id="eWRBQ8og8PCyrHXCpCZj-11" value="id&lt;br&gt;name&lt;br&gt;area_id&lt;br&gt;genre_id&lt;br&gt;image_url&lt;br&gt;detile&lt;br&gt;created_at&lt;br&gt;updated_at" style="whiteSpace=wrap;html=1;" parent="eWRBQ8og8PCyrHXCpCZj-10" vertex="1">
                    <mxGeometry y="20" width="130" height="140" as="geometry"/>
                </mxCell>
                <mxCell id="eWRBQ8og8PCyrHXCpCZj-16" value="Genresテーブル" style="swimlane;startSize=23;" parent="1" vertex="1">
                    <mxGeometry x="280" y="270" width="110" height="140" as="geometry"/>
                </mxCell>
                <mxCell id="eWRBQ8og8PCyrHXCpCZj-17" value="id&lt;br&gt;genre_name&lt;br&gt;created_at&lt;br&gt;updated_at" style="whiteSpace=wrap;html=1;" parent="eWRBQ8og8PCyrHXCpCZj-16" vertex="1">
                    <mxGeometry y="20" width="110" height="120" as="geometry"/>
                </mxCell>
                <mxCell id="eWRBQ8og8PCyrHXCpCZj-14" value="Areasテーブル" style="swimlane;startSize=23;" parent="1" vertex="1">
                    <mxGeometry x="80" y="270" width="110" height="140" as="geometry"/>
                </mxCell>
                <mxCell id="eWRBQ8og8PCyrHXCpCZj-15" value="id&lt;br&gt;area_name&lt;br&gt;created_at&lt;br&gt;updated_at" style="whiteSpace=wrap;html=1;" parent="eWRBQ8og8PCyrHXCpCZj-14" vertex="1">
                    <mxGeometry y="20" width="110" height="120" as="geometry"/>
                </mxCell>
                <mxCell id="eWRBQ8og8PCyrHXCpCZj-21" value="" style="edgeStyle=entityRelationEdgeStyle;fontSize=12;html=1;endArrow=ERzeroToMany;endFill=1;exitX=1;exitY=0.5;exitDx=0;exitDy=0;entryX=0;entryY=0.5;entryDx=0;entryDy=0;" parent="1" source="eWRBQ8og8PCyrHXCpCZj-7" target="eWRBQ8og8PCyrHXCpCZj-9" edge="1">
                    <mxGeometry width="100" height="100" relative="1" as="geometry">
                        <mxPoint x="280" y="280" as="sourcePoint"/>
                        <mxPoint x="380" y="180" as="targetPoint"/>
                    </mxGeometry>
                </mxCell>
                <mxCell id="eWRBQ8og8PCyrHXCpCZj-25" value="" style="edgeStyle=entityRelationEdgeStyle;fontSize=12;html=1;endArrow=ERone;endFill=1;" parent="1" target="eWRBQ8og8PCyrHXCpCZj-7" edge="1">
                    <mxGeometry width="100" height="100" relative="1" as="geometry">
                        <mxPoint x="430" y="120" as="sourcePoint"/>
                        <mxPoint x="420" y="100" as="targetPoint"/>
                    </mxGeometry>
                </mxCell>
                <mxCell id="eWRBQ8og8PCyrHXCpCZj-30" value="" style="edgeStyle=orthogonalEdgeStyle;fontSize=12;html=1;endArrow=ERzeroToMany;endFill=1;entryX=0.5;entryY=1;entryDx=0;entryDy=0;" parent="1" target="eWRBQ8og8PCyrHXCpCZj-11" edge="1">
                    <mxGeometry width="100" height="100" relative="1" as="geometry">
                        <mxPoint x="125" y="270" as="sourcePoint"/>
                        <mxPoint x="70" y="240" as="targetPoint"/>
                        <Array as="points">
                            <mxPoint x="125" y="250"/>
                            <mxPoint x="125" y="250"/>
                        </Array>
                    </mxGeometry>
                </mxCell>
                <mxCell id="eWRBQ8og8PCyrHXCpCZj-32" value="" style="edgeStyle=elbowEdgeStyle;fontSize=12;html=1;endArrow=ERzeroToMany;endFill=1;elbow=vertical;entryX=0.75;entryY=1;entryDx=0;entryDy=0;exitX=0.545;exitY=0;exitDx=0;exitDy=0;exitPerimeter=0;" parent="1" edge="1" target="eWRBQ8og8PCyrHXCpCZj-11" source="eWRBQ8og8PCyrHXCpCZj-16">
                    <mxGeometry width="100" height="100" relative="1" as="geometry">
                        <mxPoint x="340" y="260" as="sourcePoint"/>
                        <mxPoint x="150" y="206" as="targetPoint"/>
                    </mxGeometry>
                </mxCell>
                <mxCell id="eWRBQ8og8PCyrHXCpCZj-34" value="Reverationsテーブル" style="swimlane;" parent="1" vertex="1">
                    <mxGeometry x="480" y="270" width="120" height="160" as="geometry"/>
                </mxCell>
                <mxCell id="eWRBQ8og8PCyrHXCpCZj-35" value="id&lt;br&gt;user_id&lt;br&gt;Restaurant_id&lt;br&gt;datetime&lt;br&gt;number_reservation&lt;br&gt;created_at&lt;br&gt;updated_at" style="whiteSpace=wrap;html=1;" parent="eWRBQ8og8PCyrHXCpCZj-34" vertex="1">
                    <mxGeometry y="20" width="120" height="140" as="geometry"/>
                </mxCell>
                <mxCell id="eWRBQ8og8PCyrHXCpCZj-37" value="" style="fontSize=12;html=1;endArrow=ERzeroToMany;endFill=1;entryX=0.333;entryY=0;entryDx=0;entryDy=0;edgeStyle=orthogonalEdgeStyle;entryPerimeter=0;" parent="1" target="eWRBQ8og8PCyrHXCpCZj-34" edge="1">
                    <mxGeometry width="100" height="100" relative="1" as="geometry">
                        <mxPoint x="390" y="140" as="sourcePoint"/>
                        <mxPoint x="550" y="220" as="targetPoint"/>
                        <Array as="points">
                            <mxPoint x="460" y="140"/>
                            <mxPoint x="460" y="230"/>
                            <mxPoint x="520" y="230"/>
                        </Array>
                    </mxGeometry>
                </mxCell>
                <mxCell id="eWRBQ8og8PCyrHXCpCZj-38" value="" style="edgeStyle=elbowEdgeStyle;fontSize=12;html=1;endArrow=ERzeroToMany;endFill=1;elbow=vertical;exitX=0.5;exitY=0;exitDx=0;exitDy=0;" parent="1" source="eWRBQ8og8PCyrHXCpCZj-10" edge="1">
                    <mxGeometry width="100" height="100" relative="1" as="geometry">
                        <mxPoint x="600" y="10" as="sourcePoint"/>
                        <mxPoint x="530" y="40" as="targetPoint"/>
                        <Array as="points">
                            <mxPoint x="330" y="10"/>
                            <mxPoint x="330" y="10"/>
                        </Array>
                    </mxGeometry>
                </mxCell>
                <mxCell id="eWRBQ8og8PCyrHXCpCZj-39" value="" style="edgeStyle=orthogonalEdgeStyle;fontSize=12;html=1;endArrow=ERzeroToMany;endFill=1;exitX=1;exitY=0.5;exitDx=0;exitDy=0;exitPerimeter=0;" parent="1" source="eWRBQ8og8PCyrHXCpCZj-11" target="eWRBQ8og8PCyrHXCpCZj-34" edge="1">
                    <mxGeometry width="100" height="100" relative="1" as="geometry">
                        <mxPoint x="700" y="210" as="sourcePoint"/>
                        <mxPoint x="600" y="210" as="targetPoint"/>
                        <Array as="points">
                            <mxPoint x="240" y="130"/>
                            <mxPoint x="240" y="210"/>
                            <mxPoint x="540" y="210"/>
                        </Array>
                    </mxGeometry>
                </mxCell>
            </root>
        </mxGraphModel>
    </diagram>
</mxfile>